<svg width="101" height="101" viewBox="0 0 101 101" fill="none" xmlns="http://www.w3.org/2000/svg">
<g clip-path="url(#clip0_1_5)">
<path d="M94.5889 0H6.41113" stroke="black" stroke-width="0.5"/>
<path d="M6.3125 0H94.6875C98.1594 0 101 2.84062 101 6.3125V94.6875C101 98.1594 98.1594 101 94.6875 101H6.3125C2.84062 101 0 98.1594 0 94.6875V6.3125C0 2.84062 2.84062 0 6.3125 0Z" stroke="black" stroke-width="0.648"/>
<path fill-rule="evenodd" clip-rule="evenodd" d="M6.33222 1.75566H40.3605H89.0062C91.4918 1.75566 95.3582 1.06523 97.4887 2.72226C99.8361 4.55683 99.2443 7.98925 99.2443 10.6129V57.8777V94.5297C99.2443 97.6662 96.7391 99.2246 93.8984 99.2246H79.2021H26.6309H8.77832C5.99687 99.2246 2.88007 99.2049 1.9332 95.9105C1.65703 94.9637 1.75566 93.9182 1.75566 92.9318V86.4221V63.6182V13.71C1.75566 9.90273 0.335346 1.77538 6.33222 1.75566Z" fill="black"/>
<path fill-rule="evenodd" clip-rule="evenodd" d="M6.37168 4.20175H40.4789H89.1049H94.076C94.7861 4.20175 95.4371 4.20175 96.0092 4.67519C97.4492 5.85878 96.7785 9.23203 96.7785 10.7707V58.292V94.5297C96.7785 96.384 95.2398 96.7588 93.7209 96.7588H78.6695H25.9996H8.52188C6.96348 96.7588 4.69492 97.1139 4.24121 95.082C4.0834 94.3127 4.20176 93.4053 4.20176 92.6359V85.85V62.691V13.1182V6.45058C4.20176 5.22753 5.10918 4.18203 6.37168 4.20175Z" fill="white"/>
<path d="M50.5592 50.5986C50.6572 50.5986 50.7367 50.5191 50.7367 50.4211C50.7367 50.323 50.6572 50.2435 50.5592 50.2435C50.4611 50.2435 50.3817 50.323 50.3817 50.4211C50.3817 50.5191 50.4611 50.5986 50.5592 50.5986Z" fill="#FDD700"/>
<path fill-rule="evenodd" clip-rule="evenodd" d="M50.5 6.3125C74.8426 6.3125 94.6875 26.1574 94.6875 50.5C94.6875 74.8426 74.8426 94.6875 50.5 94.6875C26.1574 94.6875 6.3125 74.8426 6.3125 50.5C6.3125 26.1574 26.1574 6.3125 50.5 6.3125ZM72.5938 78.5906C66.4193 83.4631 58.4695 86.2643 50.5 86.2643C30.7932 86.2643 14.7357 70.1871 14.7357 50.5C14.7357 42.5305 17.5369 34.4228 22.4291 28.2879L72.5938 78.5906ZM78.5906 72.574C83.4828 66.4193 86.284 58.4695 86.284 50.5C86.284 30.7932 70.2068 14.7357 50.5197 14.7357C42.5502 14.7357 34.6004 17.5369 28.426 22.4094L78.5906 72.574Z" fill="#BF311A"/>
</g>
<defs>
<clipPath id="clip0_1_5">
<rect width="101" height="101" fill="white"/>
</clipPath>
</defs>
</svg>
