<?xml version="1.0" encoding="UTF-8"?>
<svg id="Layer_1" data-name="Layer 1" xmlns="http://www.w3.org/2000/svg" viewBox="0 0 88.375 88.375">
  <defs>
    <style>
      .cls-1 {
        fill: #fdd700;
      }

      .cls-2 {
        fill: #bf311a;
        fill-rule: evenodd;
      }
    </style>
  </defs>
  <path class="cls-1" d="m42.9165,42.4571c.098,0,.1775-.0795.1775-.1775,0-.0981-.0795-.1776-.1775-.1776-.0981,0-.1775.0795-.1775.1776,0,.098.0794.1775.1775.1775Z"/>
  <path class="cls-2" d="m44.1875,0c24.3426,0,44.1875,19.8449,44.1875,44.1875s-19.8449,44.1875-44.1875,44.1875S0,68.5301,0,44.1875,19.8449,0,44.1875,0Zm22.0938,72.2781c-6.1745,4.8725-14.1243,7.6737-22.0938,7.6737-19.7068,0-35.7643-16.0772-35.7643-35.7643,0-7.9695,2.8012-16.0772,7.6934-22.2121l50.1647,50.3027Zm5.9968-6.0166c4.8922-6.1547,7.6934-14.1045,7.6934-22.074,0-19.7068-16.0772-35.7643-35.7643-35.7643-7.9695,0-15.9193,2.8012-22.0937,7.6737l50.1646,50.1646Z"/>
</svg>